<?xml version="1.0" standalone="no"?>
<!DOCTYPE svg PUBLIC "-//W3C//DTD SVG 20010904//EN"
 "http://www.w3.org/TR/2001/REC-SVG-20010904/DTD/svg10.dtd">
<svg version="1.0" xmlns="http://www.w3.org/2000/svg"
 width="1034.000000pt" height="1280.000000pt" viewBox="0 0 1034.000000 1280.000000"
 preserveAspectRatio="xMidYMid meet">
<metadata>
Created by potrace 1.15, written by Peter Selinger 2001-2017
</metadata>
<g transform="translate(0.000000,1280.000000) scale(0.100000,-0.100000)"
fill="#000000" stroke="none">
<path d="M2930 12794 c-14 -2 -59 -9 -100 -15 -147 -21 -241 -50 -535 -164
-60 -23 -146 -49 -190 -57 -215 -41 -439 -190 -507 -338 -18 -40 -29 -51 -53
-55 -55 -11 -129 -37 -200 -71 -38 -18 -90 -35 -115 -39 -240 -35 -556 -127
-774 -225 -209 -94 -434 -261 -452 -334 -20 -81 179 -161 586 -235 200 -36
400 -67 535 -81 178 -19 215 -28 241 -59 27 -32 116 -81 192 -106 74 -24 108
-56 126 -118 9 -29 27 -69 41 -89 14 -21 29 -58 34 -82 12 -64 39 -105 104
-154 71 -54 81 -88 46 -159 -22 -45 -24 -58 -21 -194 2 -129 -1 -157 -23 -240
-13 -52 -34 -141 -45 -199 -32 -163 -48 -217 -90 -299 -93 -182 -139 -384
-147 -637 -8 -267 12 -403 134 -909 135 -564 203 -787 328 -1080 61 -143 88
-226 135 -405 68 -263 104 -378 170 -550 103 -266 191 -426 298 -541 78 -84
103 -120 267 -384 237 -380 449 -668 699 -950 100 -112 112 -130 187 -285 99
-203 119 -241 163 -314 59 -98 70 -204 30 -280 -11 -19 -38 -72 -62 -118 -46
-90 -153 -239 -217 -303 -23 -22 -91 -86 -153 -143 -130 -120 -187 -195 -236
-312 -59 -138 -106 -172 -267 -190 -223 -25 -343 -63 -399 -127 -48 -55 -36
-87 44 -113 56 -18 817 -5 896 16 74 19 122 18 205 -6 100 -29 399 -29 462 -1
45 21 67 49 77 96 5 25 -3 45 -43 111 -45 72 -56 83 -98 100 -45 17 -110 23
-158 13 -52 -10 -93 183 -66 306 12 54 97 199 210 357 70 99 117 143 162 153
59 13 301 283 388 432 23 40 51 78 62 84 33 17 138 12 214 -12 38 -11 105 -40
149 -64 45 -24 180 -85 301 -135 273 -113 567 -257 619 -303 37 -31 40 -37 39
-85 0 -29 -5 -58 -11 -65 -5 -6 -15 -29 -21 -50 -9 -27 -38 -60 -104 -119
-152 -136 -261 -250 -286 -300 -22 -40 -30 -47 -64 -52 -21 -4 -67 -18 -100
-33 -57 -24 -76 -27 -242 -32 -111 -4 -188 -11 -201 -18 -35 -20 -221 -221
-239 -259 -14 -29 -14 -38 -3 -61 22 -45 57 -62 168 -80 117 -20 198 -21 605
-10 158 5 343 4 425 -1 169 -10 239 0 294 42 85 64 99 175 34 265 -31 43 -33
51 -32 126 1 57 10 109 31 180 l30 100 33 0 c32 0 34 -2 56 -68 89 -263 407
-652 624 -762 43 -22 56 -40 190 -257 491 -796 665 -1064 761 -1171 146 -164
586 -271 928 -227 119 16 200 39 297 85 88 43 176 113 217 173 16 26 75 51
119 52 55 0 78 -20 125 -114 79 -158 169 -224 325 -241 170 -18 231 36 253
225 6 52 3 66 -55 210 -78 196 -171 404 -222 498 -33 59 -41 86 -45 140 -3 37
-11 84 -19 105 -20 53 -18 68 15 107 l29 35 35 -37 c38 -42 52 -45 84 -23 36
25 39 76 10 127 -14 23 -69 149 -122 278 -166 404 -279 622 -468 905 -146 218
-159 249 -357 860 -40 121 -99 279 -132 350 -66 144 -134 340 -262 755 -99
321 -102 331 -120 516 -12 117 -19 151 -44 205 -54 115 -103 300 -222 834
-133 595 -186 798 -235 895 -34 68 -43 107 -71 330 -41 333 -83 499 -147 583
-13 18 -50 109 -81 202 -286 847 -769 1636 -1230 2009 -209 169 -358 242 -609
300 -79 18 -203 74 -320 145 -81 49 -84 52 -125 133 -84 170 -239 391 -367
527 -38 40 -178 161 -310 269 -288 235 -496 438 -620 607 -106 142 -186 225
-275 283 -36 23 -116 77 -177 120 -173 118 -363 231 -418 248 -103 31 -204 45
-350 49 -82 2 -161 2 -175 -1z"/>
</g>
</svg>
